ffmpeg started on 2025-05-12 at 21:16:49
Report written to "D:\Convert\FFMetrics\reports\ssim_report-6.txt"
Log level: 32
Command line:
ffmpeg -hide_banner -nostdin -i "G:\\\xc0\xed\xe8\xec\xe5\\\xce\xed\xe3\xee\xe8\xed\xe3\xe8\\!_35_\xcb\xe5\xf2\xee_2024\\DreamCast-1\\\xd1\xe0\xec\xfb\xe9 \xf1\xe8\xeb\xfc\xed\xfb\xe9 \xe2\xee\xeb\xf8\xe5\xe1\xed\xe8\xea \xe0\xf0\xec\xe8\xe8 \xef\xee\xe2\xe5\xeb\xe8\xf2\xe5\xeb\xff \xe4\xe5\xec\xee\xed\xee\xe2 \xee\xea\xe0\xe7\xe0\xeb\xf1\xff \xf7\xe5\xeb\xee\xe2\xe5\xea\xee\xec\\DC_Maou_Gun_Saikyou_no_Majutsushi_wa_Ningen_datta_05_Telegram_HEVC.mkv" -i "G:\\\xc0\xed\xe8\xec\xe5\\\xce\xed\xe3\xee\xe8\xed\xe3\xe8\\!_35_\xcb\xe5\xf2\xee_2024\\DreamCast-1\\\xd1\xe0\xec\xfb\xe9 \xf1\xe8\xeb\xfc\xed\xfb\xe9 \xe2\xee\xeb\xf8\xe5\xe1\xed\xe8\xea \xe0\xf0\xec\xe8\xe8 \xef\xee\xe2\xe5\xeb\xe8\xf2\xe5\xeb\xff \xe4\xe5\xec\xee\xed\xee\xe2 \xee\xea\xe0\xe7\xe0\xeb\xf1\xff \xf7\xe5\xeb\xee\xe2\xe5\xea\xee\xec\\DC_Maou_Gun_Saikyou_no_Majutsushi_wa_Ningen_datta_05_Telegram.mp4" -lavfi "[0:v]settb=AVTB,setpts=PTS-STARTPTS,format=pix_fmts=yuv420p10,fps=24000/1001,scale=1920:1080:flags=bicubic[main];[1:v]settb=AVTB,setpts=PTS-STARTPTS,format=pix_fmts=yuv420p,fps=24000/1001,scale=1920:1080:flags=bicubic[ref];[main][ref]ssim=eof_action=endall:stats_file='D\\:/Convert/FFMetrics/logs/ssim_logfile-6.txt'" -f null -
Input #0, matroska,webm, from 'G:\Аниме\Онгоинги\!_35_Лето_2024\DreamCast-1\Самый сильный волшебник армии повелителя демонов оказался человеком\DC_Maou_Gun_Saikyou_no_Majutsushi_wa_Ningen_datta_05_Telegram_HEVC.mkv':
  Metadata:
    COMPATIBLE_BRANDS: isomiso2avc1mp41
    MAJOR_BRAND     : isom
    MINOR_VERSION   : 512
    ENCODER         : Lavf61.7.100
  Duration: 00:23:46.73, start: -0.021000, bitrate: 1195 kb/s
  Stream #0:0: Video: hevc (Main 10), yuv420p10le(tv, bt709, progressive), 1920x1080 [SAR 1:1 DAR 16:9], 23.98 fps, 23.98 tbr, 1k tbn (default)
      Metadata:
        HANDLER_NAME    : VideoHandler
        VENDOR_ID       : [0][0][0][0]
        ENCODER         : Lavc61.19.100 libx265
        BPS             : 997202
        DURATION        : 00:23:46.549708333
        NUMBER_OF_FRAMES: 34203
        NUMBER_OF_BYTES : 177819833
        _STATISTICS_WRITING_APP: mkvpropedit v66.0.0 ('Josie') 64-bit
        _STATISTICS_WRITING_DATE_UTC: 2025-05-10 15:41:38
        _STATISTICS_TAGS: BPS DURATION NUMBER_OF_FRAMES NUMBER_OF_BYTES
  Stream #0:1: Audio: aac (LC), 48000 Hz, stereo, fltp (default)
      Metadata:
        HANDLER_NAME    : SoundHandler
        VENDOR_ID       : [0][0][0][0]
        ENCODER         : Lavc61.19.100 aac
        BPS             : 193841
        DURATION        : 00:23:46.730000000
        NUMBER_OF_FRAMES: 66879
        NUMBER_OF_BYTES : 34569904
        _STATISTICS_WRITING_APP: mkvpropedit v66.0.0 ('Josie') 64-bit
        _STATISTICS_WRITING_DATE_UTC: 2025-05-10 15:41:38
        _STATISTICS_TAGS: BPS DURATION NUMBER_OF_FRAMES NUMBER_OF_BYTES
Input #1, mov,mp4,m4a,3gp,3g2,mj2, from 'G:\Аниме\Онгоинги\!_35_Лето_2024\DreamCast-1\Самый сильный волшебник армии повелителя демонов оказался человеком\DC_Maou_Gun_Saikyou_no_Majutsushi_wa_Ningen_datta_05_Telegram.mp4':
  Metadata:
    major_brand     : isom
    minor_version   : 512
    compatible_brands: isomiso2avc1mp41
    encoder         : Lavf61.1.100
  Duration: 00:23:46.68, start: 0.000000, bitrate: 3776 kb/s
  Stream #1:0[0x1](und): Video: h264 (High) (avc1 / 0x31637661), yuv420p(tv, bt709, progressive), 1920x1080 [SAR 1:1 DAR 16:9], 3628 kb/s, 23.98 fps, 23.98 tbr, 24k tbn (default)
      Metadata:
        handler_name    : VideoHandler
        vendor_id       : [0][0][0][0]
        encoder         : Lavc61.3.100 h264_qsv
  Stream #1:1[0x2](und): Audio: aac (HE-AACv2) (mp4a / 0x6134706D), 48000 Hz, stereo, fltp, 144 kb/s (default)
      Metadata:
        handler_name    : SoundHandler
        vendor_id       : [0][0][0][0]
Stream mapping:
  Stream #0:0 (hevc) -> settb:default
  Stream #1:0 (h264) -> settb:default
  ssim:default -> Stream #0:0 (wrapped_avframe)
  Stream #0:1 -> #0:1 (aac (native) -> pcm_s16le (native))
Output #0, null, to 'pipe:':
  Metadata:
    COMPATIBLE_BRANDS: isomiso2avc1mp41
    MAJOR_BRAND     : isom
    MINOR_VERSION   : 512
    encoder         : Lavf61.7.100
  Stream #0:0: Video: wrapped_avframe, yuv420p10le(tv, bt709, progressive), 1920x1080 [SAR 1:1 DAR 16:9], q=2-31, 200 kb/s, 23.98 fps, 23.98 tbn
      Metadata:
        encoder         : Lavc61.19.100 wrapped_avframe
  Stream #0:1: Audio: pcm_s16le, 48000 Hz, stereo, s16, 1536 kb/s (default)
      Metadata:
        HANDLER_NAME    : SoundHandler
        VENDOR_ID       : [0][0][0][0]
        _STATISTICS_TAGS: BPS DURATION NUMBER_OF_FRAMES NUMBER_OF_BYTES
        BPS             : 193841
        DURATION        : 00:23:46.730000000
        NUMBER_OF_FRAMES: 66879
        NUMBER_OF_BYTES : 34569904
        _STATISTICS_WRITING_APP: mkvpropedit v66.0.0 ('Josie') 64-bit
        _STATISTICS_WRITING_DATE_UTC: 2025-05-10 15:41:38
        encoder         : Lavc61.19.100 pcm_s16le
frame=  159 fps=0.0 q=-0.0 size=N/A time=00:00:06.63 bitrate=N/A speed=12.8x    frame=  407 fps=392 q=-0.0 size=N/A time=00:00:16.97 bitrate=N/A speed=16.3x    frame=  653 fps=422 q=-0.0 size=N/A time=00:00:27.23 bitrate=N/A speed=17.6x    frame=  897 fps=434 q=-0.0 size=N/A time=00:00:37.41 bitrate=N/A speed=18.1x    frame= 1135 fps=438 q=-0.0 size=N/A time=00:00:47.33 bitrate=N/A speed=18.3x    frame= 1349 fps=436 q=-0.0 size=N/A time=00:00:56.26 bitrate=N/A speed=18.2x    frame= 1606 fps=444 q=-0.0 size=N/A time=00:01:06.98 bitrate=N/A speed=18.5x    frame= 1868 fps=451 q=-0.0 size=N/A time=00:01:17.91 bitrate=N/A speed=18.8x    frame= 2122 fps=456 q=-0.0 size=N/A time=00:01:28.50 bitrate=N/A speed=  19x    frame= 2355 fps=455 q=-0.0 size=N/A time=00:01:38.22 bitrate=N/A speed=  19x    frame= 2597 fps=456 q=-0.0 size=N/A time=00:01:48.31 bitrate=N/A speed=  19x    frame= 2835 fps=457 q=-0.0 size=N/A time=00:01:58.24 bitrate=N/A speed=  19x    frame= 3034 fps=451 q=-0.0 size=N/A time=00:02:06.54 bitrate=N/A speed=18.8x    frame= 3219 fps=445 q=-0.0 size=N/A time=00:02:14.25 bitrate=N/A speed=18.5x    frame= 3447 fps=444 q=-0.0 size=N/A time=00:02:23.76 bitrate=N/A speed=18.5x    frame= 3690 fps=446 q=-0.0 size=N/A time=00:02:33.90 bitrate=N/A speed=18.6x    frame= 3903 fps=444 q=-0.0 size=N/A time=00:02:42.78 bitrate=N/A speed=18.5x    frame= 4106 fps=442 q=-0.0 size=N/A time=00:02:51.25 bitrate=N/A speed=18.4x    frame= 4295 fps=437 q=-0.0 size=N/A time=00:02:59.13 bitrate=N/A speed=18.2x    frame= 4507 fps=436 q=-0.0 size=N/A time=00:03:07.97 bitrate=N/A speed=18.2x    frame= 4728 fps=435 q=-0.0 size=N/A time=00:03:17.19 bitrate=N/A speed=18.2x    frame= 4970 fps=437 q=-0.0 size=N/A time=00:03:27.29 bitrate=N/A speed=18.2x    frame= 5185 fps=436 q=-0.0 size=N/A time=00:03:36.25 bitrate=N/A speed=18.2x    frame= 5417 fps=437 q=-0.0 size=N/A time=00:03:45.93 bitrate=N/A speed=18.2x    frame= 5648 fps=437 q=-0.0 size=N/A time=00:03:55.56 bitrate=N/A speed=18.2x    frame= 5882 fps=437 q=-0.0 size=N/A time=00:04:05.32 bitrate=N/A speed=18.2x    frame= 6104 fps=437 q=-0.0 size=N/A time=00:04:14.58 bitrate=N/A speed=18.2x    frame= 6346 fps=439 q=-0.0 size=N/A time=00:04:24.68 bitrate=N/A speed=18.3x    frame= 6593 fps=440 q=-0.0 size=N/A time=00:04:34.98 bitrate=N/A speed=18.3x    frame= 6834 fps=441 q=-0.0 size=N/A time=00:04:45.03 bitrate=N/A speed=18.4x    frame= 7086 fps=442 q=-0.0 size=N/A time=00:04:55.54 bitrate=N/A speed=18.4x    frame= 7303 fps=442 q=-0.0 size=N/A time=00:05:04.59 bitrate=N/A speed=18.4x    frame= 7555 fps=443 q=-0.0 size=N/A time=00:05:15.10 bitrate=N/A speed=18.5x    frame= 7767 fps=442 q=-0.0 size=N/A time=00:05:23.94 bitrate=N/A speed=18.4x    frame= 7953 fps=440 q=-0.0 size=N/A time=00:05:31.70 bitrate=N/A speed=18.3x    frame= 8138 fps=437 q=-0.0 size=N/A time=00:05:39.42 bitrate=N/A speed=18.2x    frame= 8323 fps=436 q=-0.0 size=N/A time=00:05:47.13 bitrate=N/A speed=18.2x    frame= 8529 fps=434 q=-0.0 size=N/A time=00:05:55.73 bitrate=N/A speed=18.1x    frame= 8723 fps=433 q=-0.0 size=N/A time=00:06:03.82 bitrate=N/A speed=18.1x    frame= 8932 fps=432 q=-0.0 size=N/A time=00:06:12.53 bitrate=N/A speed=  18x    frame= 9101 fps=430 q=-0.0 size=N/A time=00:06:19.58 bitrate=N/A speed=17.9x    frame= 9314 fps=429 q=-0.0 size=N/A time=00:06:28.47 bitrate=N/A speed=17.9x    frame= 9499 fps=428 q=-0.0 size=N/A time=00:06:36.18 bitrate=N/A speed=17.8x    frame= 9728 fps=428 q=-0.0 size=N/A time=00:06:45.73 bitrate=N/A speed=17.9x    frame= 9906 fps=426 q=-0.0 size=N/A time=00:06:53.16 bitrate=N/A speed=17.8x    frame=10061 fps=423 q=-0.0 size=N/A time=00:06:59.62 bitrate=N/A speed=17.7x    frame=10261 fps=423 q=-0.0 size=N/A time=00:07:07.96 bitrate=N/A speed=17.6x    frame=10501 fps=424 q=-0.0 size=N/A time=00:07:17.97 bitrate=N/A speed=17.7x    frame=10741 fps=424 q=-0.0 size=N/A time=00:07:27.98 bitrate=N/A speed=17.7x    frame=10989 fps=426 q=-0.0 size=N/A time=00:07:38.33 bitrate=N/A speed=17.8x    frame=11226 fps=426 q=-0.0 size=N/A time=00:07:48.21 bitrate=N/A speed=17.8x    frame=11451 fps=426 q=-0.0 size=N/A time=00:07:57.60 bitrate=N/A speed=17.8x    frame=11677 fps=427 q=-0.0 size=N/A time=00:08:07.02 bitrate=N/A speed=17.8x    frame=11921 fps=427 q=-0.0 size=N/A time=00:08:17.20 bitrate=N/A speed=17.8x    frame=12166 fps=428 q=-0.0 size=N/A time=00:08:27.42 bitrate=N/A speed=17.9x    frame=12312 fps=426 q=-0.0 size=N/A time=00:08:33.51 bitrate=N/A speed=17.8x    frame=12530 fps=426 q=-0.0 size=N/A time=00:08:42.60 bitrate=N/A speed=17.8x    frame=12741 fps=426 q=-0.0 size=N/A time=00:08:51.40 bitrate=N/A speed=17.7x    frame=12972 fps=426 q=-0.0 size=N/A time=00:09:01.04 bitrate=N/A speed=17.8x    frame=13147 fps=424 q=-0.0 size=N/A time=00:09:08.33 bitrate=N/A speed=17.7x    frame=13369 fps=424 q=-0.0 size=N/A time=00:09:17.59 bitrate=N/A speed=17.7x    frame=13538 fps=423 q=-0.0 size=N/A time=00:09:24.64 bitrate=N/A speed=17.6x    frame=13750 fps=423 q=-0.0 size=N/A time=00:09:33.48 bitrate=N/A speed=17.6x    frame=13990 fps=423 q=-0.0 size=N/A time=00:09:43.49 bitrate=N/A speed=17.7x    frame=14221 fps=424 q=-0.0 size=N/A time=00:09:53.13 bitrate=N/A speed=17.7x    frame=14456 fps=424 q=-0.0 size=N/A time=00:10:02.93 bitrate=N/A speed=17.7x    frame=14674 fps=424 q=-0.0 size=N/A time=00:10:12.02 bitrate=N/A speed=17.7x    frame=14920 fps=425 q=-0.0 size=N/A time=00:10:22.28 bitrate=N/A speed=17.7x    frame=15105 fps=424 q=-0.0 size=N/A time=00:10:30.00 bitrate=N/A speed=17.7x    frame=15317 fps=424 q=-0.0 size=N/A time=00:10:38.84 bitrate=N/A speed=17.7x    frame=15525 fps=424 q=-0.0 size=N/A time=00:10:47.52 bitrate=N/A speed=17.7x    frame=15768 fps=424 q=-0.0 size=N/A time=00:10:57.65 bitrate=N/A speed=17.7x    frame=15984 fps=424 q=-0.0 size=N/A time=00:11:06.66 bitrate=N/A speed=17.7x    frame=16163 fps=423 q=-0.0 size=N/A time=00:11:14.13 bitrate=N/A speed=17.6x    frame=16336 fps=422 q=-0.0 size=N/A time=00:11:21.34 bitrate=N/A speed=17.6x    frame=16541 fps=422 q=-0.0 size=N/A time=00:11:29.89 bitrate=N/A speed=17.6x    frame=16770 fps=422 q=-0.0 size=N/A time=00:11:39.44 bitrate=N/A speed=17.6x    frame=17025 fps=423 q=-0.0 size=N/A time=00:11:50.08 bitrate=N/A speed=17.6x    frame=17264 fps=423 q=-0.0 size=N/A time=00:12:00.05 bitrate=N/A speed=17.7x    frame=17505 fps=424 q=-0.0 size=N/A time=00:12:10.10 bitrate=N/A speed=17.7x    frame=17749 fps=425 q=-0.0 size=N/A time=00:12:20.28 bitrate=N/A speed=17.7x    frame=18011 fps=426 q=-0.0 size=N/A time=00:12:31.20 bitrate=N/A speed=17.7x    frame=18256 fps=426 q=-0.0 size=N/A time=00:12:41.42 bitrate=N/A speed=17.8x    frame=18514 fps=427 q=-0.0 size=N/A time=00:12:52.18 bitrate=N/A speed=17.8x    frame=18736 fps=427 q=-0.0 size=N/A time=00:13:01.44 bitrate=N/A speed=17.8x    frame=18932 fps=426 q=-0.0 size=N/A time=00:13:09.62 bitrate=N/A speed=17.8x    frame=19138 fps=426 q=-0.0 size=N/A time=00:13:18.21 bitrate=N/A speed=17.8x    frame=19297 fps=425 q=-0.0 size=N/A time=00:13:24.84 bitrate=N/A speed=17.7x    frame=19545 fps=425 q=-0.0 size=N/A time=00:13:35.18 bitrate=N/A speed=17.7x    frame=19777 fps=425 q=-0.0 size=N/A time=00:13:44.86 bitrate=N/A speed=17.7x    frame=19989 fps=425 q=-0.0 size=N/A time=00:13:53.70 bitrate=N/A speed=17.7x    frame=20227 fps=426 q=-0.0 size=N/A time=00:14:03.63 bitrate=N/A speed=17.8x    frame=20468 fps=426 q=-0.0 size=N/A time=00:14:13.68 bitrate=N/A speed=17.8x    frame=20652 fps=426 q=-0.0 size=N/A time=00:14:21.36 bitrate=N/A speed=17.7x    frame=20876 fps=426 q=-0.0 size=N/A time=00:14:30.70 bitrate=N/A speed=17.7x    frame=21103 fps=426 q=-0.0 size=N/A time=00:14:40.17 bitrate=N/A speed=17.8x    frame=21315 fps=426 q=-0.0 size=N/A time=00:14:49.01 bitrate=N/A speed=17.8x    frame=21535 fps=426 q=-0.0 size=N/A time=00:14:58.18 bitrate=N/A speed=17.7x    frame=21756 fps=426 q=-0.0 size=N/A time=00:15:07.40 bitrate=N/A speed=17.8x    frame=22014 fps=426 q=-0.0 size=N/A time=00:15:18.16 bitrate=N/A speed=17.8x    frame=22271 fps=427 q=-0.0 size=N/A time=00:15:28.88 bitrate=N/A speed=17.8x    frame=22516 fps=427 q=-0.0 size=N/A time=00:15:39.10 bitrate=N/A speed=17.8x    frame=22763 fps=428 q=-0.0 size=N/A time=00:15:49.40 bitrate=N/A speed=17.9x    frame=23025 fps=429 q=-0.0 size=N/A time=00:16:00.33 bitrate=N/A speed=17.9x    frame=23261 fps=429 q=-0.0 size=N/A time=00:16:10.17 bitrate=N/A speed=17.9x    frame=23500 fps=429 q=-0.0 size=N/A time=00:16:20.14 bitrate=N/A speed=17.9x    frame=23761 fps=430 q=-0.0 size=N/A time=00:16:31.03 bitrate=N/A speed=17.9x    frame=24005 fps=430 q=-0.0 size=N/A time=00:16:41.20 bitrate=N/A speed=  18x    frame=24257 fps=431 q=-0.0 size=N/A time=00:16:51.71 bitrate=N/A speed=  18x    frame=24482 fps=431 q=-0.0 size=N/A time=00:17:01.10 bitrate=N/A speed=  18x    frame=24706 fps=431 q=-0.0 size=N/A time=00:17:10.44 bitrate=N/A speed=  18x    frame=24907 fps=431 q=-0.0 size=N/A time=00:17:18.82 bitrate=N/A speed=  18x    frame=25075 fps=430 q=-0.0 size=N/A time=00:17:25.83 bitrate=N/A speed=17.9x    frame=25319 fps=430 q=-0.0 size=N/A time=00:17:36.01 bitrate=N/A speed=17.9x    frame=25594 fps=431 q=-0.0 size=N/A time=00:17:47.48 bitrate=N/A speed=  18x    frame=25857 fps=432 q=-0.0 size=N/A time=00:17:58.45 bitrate=N/A speed=  18x    frame=26133 fps=433 q=-0.0 size=N/A time=00:18:09.96 bitrate=N/A speed=  18x    frame=26390 fps=433 q=-0.0 size=N/A time=00:18:20.68 bitrate=N/A speed=18.1x    frame=26650 fps=434 q=-0.0 size=N/A time=00:18:31.52 bitrate=N/A speed=18.1x    frame=26909 fps=434 q=-0.0 size=N/A time=00:18:42.32 bitrate=N/A speed=18.1x    frame=27175 fps=435 q=-0.0 size=N/A time=00:18:53.42 bitrate=N/A speed=18.1x    frame=27450 fps=436 q=-0.0 size=N/A time=00:19:04.89 bitrate=N/A speed=18.2x    frame=27723 fps=436 q=-0.0 size=N/A time=00:19:16.28 bitrate=N/A speed=18.2x    frame=27970 fps=437 q=-0.0 size=N/A time=00:19:26.58 bitrate=N/A speed=18.2x    frame=28204 fps=437 q=-0.0 size=N/A time=00:19:36.34 bitrate=N/A speed=18.2x    frame=28469 fps=438 q=-0.0 size=N/A time=00:19:47.39 bitrate=N/A speed=18.3x    frame=28720 fps=438 q=-0.0 size=N/A time=00:19:57.86 bitrate=N/A speed=18.3x    frame=28966 fps=438 q=-0.0 size=N/A time=00:20:08.12 bitrate=N/A speed=18.3x    frame=29177 fps=438 q=-0.0 size=N/A time=00:20:16.92 bitrate=N/A speed=18.3x    frame=29376 fps=438 q=-0.0 size=N/A time=00:20:25.22 bitrate=N/A speed=18.3x    frame=29610 fps=438 q=-0.0 size=N/A time=00:20:34.98 bitrate=N/A speed=18.3x    frame=29855 fps=438 q=-0.0 size=N/A time=00:20:45.20 bitrate=N/A speed=18.3x    frame=30081 fps=438 q=-0.0 size=N/A time=00:20:54.62 bitrate=N/A speed=18.3x    frame=30314 fps=438 q=-0.0 size=N/A time=00:21:04.34 bitrate=N/A speed=18.3x    frame=30580 fps=439 q=-0.0 size=N/A time=00:21:15.44 bitrate=N/A speed=18.3x    frame=30839 fps=439 q=-0.0 size=N/A time=00:21:26.24 bitrate=N/A speed=18.3x    frame=31079 fps=439 q=-0.0 size=N/A time=00:21:36.25 bitrate=N/A speed=18.3x    frame=31302 fps=439 q=-0.0 size=N/A time=00:21:45.55 bitrate=N/A speed=18.3x    frame=31554 fps=440 q=-0.0 size=N/A time=00:21:56.06 bitrate=N/A speed=18.3x    frame=31809 fps=440 q=-0.0 size=N/A time=00:22:06.70 bitrate=N/A speed=18.4x    frame=32017 fps=440 q=-0.0 size=N/A time=00:22:15.37 bitrate=N/A speed=18.3x    frame=32212 fps=439 q=-0.0 size=N/A time=00:22:23.50 bitrate=N/A speed=18.3x    frame=32408 fps=439 q=-0.0 size=N/A time=00:22:31.68 bitrate=N/A speed=18.3x    frame=32595 fps=438 q=-0.0 size=N/A time=00:22:39.48 bitrate=N/A speed=18.3x    frame=32792 fps=438 q=-0.0 size=N/A time=00:22:47.69 bitrate=N/A speed=18.3x    frame=32987 fps=438 q=-0.0 size=N/A time=00:22:55.83 bitrate=N/A speed=18.3x    frame=33172 fps=437 q=-0.0 size=N/A time=00:23:03.54 bitrate=N/A speed=18.2x    frame=33360 fps=437 q=-0.0 size=N/A time=00:23:11.39 bitrate=N/A speed=18.2x    frame=33554 fps=436 q=-0.0 size=N/A time=00:23:19.48 bitrate=N/A speed=18.2x    frame=33738 fps=436 q=-0.0 size=N/A time=00:23:27.15 bitrate=N/A speed=18.2x    frame=33928 fps=435 q=-0.0 size=N/A time=00:23:35.08 bitrate=N/A speed=18.1x    frame=34136 fps=435 q=-0.0 size=N/A time=00:23:43.79 bitrate=N/A speed=18.1x    [Parsed_ssim_10 @ 0000015529494c00] SSIM Y:0.995522 (23.489345) U:0.994079 (22.275920) V:0.994730 (22.782007) All:0.995150 (23.142243)
[out#0/null @ 000001551c39f5c0] video:14697KiB audio:267516KiB subtitle:0KiB other streams:0KiB global headers:0KiB muxing overhead: unknown
frame=34203 fps=435 q=-0.0 Lsize=N/A time=00:23:46.55 bitrate=N/A speed=18.1x    
